<svg xmlns="http://www.w3.org/2000/svg" viewBox="0 0 256 256"><defs><linearGradient id="handle" x1="0" y1="0" x2="1" y2="1"><stop offset="0" stop-color="#e8a93a"/><stop offset="1" stop-color="#d1922a"/></linearGradient></defs><rect x="20" y="20" width="216" height="216" rx="38" fill="#f7ecd8"/><g stroke="#e8925f" stroke-width="8" stroke-linecap="round" fill="none"><path d="M40 65 Q35 30 65 40"/><path d="M35 90 Q28 60 60 63"/></g><g stroke="#f0c542" stroke-width="7" stroke-linecap="round" fill="none"><path d="M50 45 Q42 20 68 25"/><path d="M70 35 Q65 12 90 20"/></g><g stroke="#4fb3a9" stroke-width="7" stroke-linecap="round" fill="none"><path d="M30 70 Q15 55 25 32"/></g><path d="M128 30 C95 32 68 48 55 78 C42 108 45 148 68 178 C91 208 130 220 165 210 C200 200 220 168 216 133 C213 100 198 68 172 48 C160 39 145 32 128 30 Z" fill="none" stroke="#e8724c" stroke-width="11" stroke-linecap="round" stroke-linejoin="round"/><g><rect x="0" y="0" width="22" height="70" rx="9" fill="url(#handle)" transform="translate(108,58) rotate(38)"/><rect x="-3" y="58" width="28" height="22" rx="7" fill="#5fbdb2" transform="translate(108,58) rotate(38)"/><path d="M140 118 Q150 128 146 140 Q142 152 130 150" fill="none" stroke="#3fa89d" stroke-width="10" stroke-linecap="round"/></g><path d="M140 118 C150 132 175 128 182 148 C189 168 172 185 152 182 C165 175 168 160 155 150 C148 158 150 172 162 178 C150 190 132 186 128 170 C124 156 136 148 148 152" fill="none" stroke="#e8724c" stroke-width="11" stroke-linecap="round" stroke-linejoin="round"/><path d="M148 152 C158 158 168 170 160 182 C152 194 134 192 128 178" fill="none" stroke="#4fb3a9" stroke-width="9" stroke-linecap="round"/><path d="M132 176 C140 168 152 168 158 178" fill="none" stroke="#f0c542" stroke-width="7" stroke-linecap="round"/><circle cx="162" cy="188" r="17" fill="#e8724c"/><circle cx="162" cy="188" r="17" fill="none" stroke="#c85a3a" stroke-width="3"/><path d="M182 108 L186 118 L196 122 L186 126 L182 136 L178 126 L168 122 L178 118 Z" fill="#ffffff"/></svg>