<svg xmlns="http://www.w3.org/2000/svg" viewBox="0 0 256 256"><defs><radialGradient id="bg" cx="50%" cy="45%" r="60%"><stop offset="0%" stop-color="#F2994A"/><stop offset="100%" stop-color="#E8ECEF"/></radialGradient><linearGradient id="sun" x1="0%" y1="0%" x2="0%" y2="100%"><stop offset="0%" stop-color="#F2994A"/><stop offset="100%" stop-color="#E8ECEF"/></linearGradient><linearGradient id="hand" x1="0%" y1="0%" x2="0%" y2="100%"><stop offset="0%" stop-color="#1F4E79"/><stop offset="100%" stop-color="#F2994A"/></linearGradient></defs><circle cx="128" cy="128" r="104" fill="url(#bg)"/><circle cx="128" cy="128" r="104" fill="none" stroke="#1F4E79" stroke-width="3"/><circle cx="128" cy="128" r="104" fill="none" stroke="#E8ECEF" stroke-width="2.5" opacity="0.5"/><g><path d="M128 128 C 108 108 118 118 128 C 128 138 128 148 128 C 150 138 150 128 150 C 150 148 150 128 150 Z" fill="url(#hand)"/><path d="M128 128 C 108 108 118 118 128 C 128 138 128 148 128 C 150 138 150 128 150 Z" fill="none" stroke="#1F4E79" stroke-width="2.5" opacity="0.5"/><path d="M128 128 C 108 108 118 118 128 C 128 138 128 148 128 C 150 138 150 128 150 Z" fill="none" stroke="#1F4E79" stroke-width="2.5" opacity="0.5"/><path d="M128 128 C 108 108 118 118 128 C 128 138 128 148 128 C 150 138 150 128 150 Z" fill="none" stroke="#1F4E79" stroke-width="2.5" opacity="0.5"/><path d="M128 128 C 108 108 118 118 128 C 128 138 128 148 128 C 150 138 150 128 150 Z" fill="none" stroke="#1F4E79" stroke-width="2.5" opacity="0.5"/><path d="M128 128 C 108 108 118 118 128 C 128 138 128 148 128 C 150 138 150 128 150 Z" fill="none" stroke="#1F4E79" stroke-width="2.5" opacity="0.5"/><path d="M128 128 C 108 108 118 118 128 C 128 138 128 148 128 C 150 138 150 128 150 Z" fill="none" stroke="#1F4E79" stroke-width="2.5" opacity="0.5"/><path d="M128 128 C 108 108 118 118 128 C 128 138 128 148 128 C 150 138 150 128 150 Z" fill="none" stroke="#1F4E79" stroke-width="2.5" opacity="0.5"/><path d="M128 128 C 108 108 118 118 128 C 128 138 128 148 128 C 150 138 150 128 150 Z" fill="none" stroke="#1F4E79" stroke-width="2.5" opacity="0.5"/><path d="M128 128 C 108 108 118 118 128 C 128 138 128 148 128 C 150 138 150 128 150 Z" fill="none" stroke="#1F4E79" stroke-width="2.5" opacity="0.5"/><path d="M128 128 C 108 108 118 118 128 C 128 138 128 148 128 C 150 138 150 128 150 Z" fill="none" stroke="#1F4E79" stroke-width="2.5" opacity="0.5"/><path d="M128 128 C 108 108 118 118 128 C 128 138 128 148 128 C 150 138 150 128 150 Z" fill="none" stroke="#1F4E79" stroke-width="2.5" opacity="0.5"/><path d="M128 128 C 108 108 118 118 128 C 128 138 128 148 128 C 150 138 150 128 150 Z" fill="none" stroke="#1F4E79" stroke-width="2.5" opacity="0.5"/><path d="M128 128 C 108 108 118 118 128 C 128 138 128 148 128 C 150 138 150 128 150 Z" fill="none" stroke="#1F4E79" stroke-width="2.5" opacity="0.5"/><path d="M128 128 C 108 108 118 118 128 C 128 138 128 148 128 C 150 138 150 128 150 Z" fill="none" stroke="#1F4E79" stroke-width="2.5" opacity="0.5"/></svg>