<svg xmlns="http://www.w3.org/2000/svg" viewBox="0 0 256 256"><defs><clipPath id="circleClip"><circle cx="128" cy="128" r="104"/></clipPath></defs><circle cx="128" cy="128" r="104" fill="#E8ECEF"/><g clip-path="url(#circleClip)"><g stroke="#FFFFFF" stroke-width="4" stroke-linejoin="round"><polygon points="128,150 128,232 88,232 88,190" fill="#F2994A"/><polygon points="128,150 128,232 168,232 168,190" fill="#F2994A"/><polygon points="128,120 128,232 68,232 68,175" fill="#F2994A"/><polygon points="128,120 128,232 188,232 188,175" fill="#F2994A"/><polygon points="128,95 128,232 128,232" fill="#F2994A"/></g><path d="M128 95 L128 232" stroke="#F2994A" stroke-width="14"/></g><g stroke="#FFFFFF" stroke-width="5" stroke-linejoin="round" stroke-linecap="round"><path d="M72 175 C90 145 110 130 128 122 C146 130 166 145 184 175 L184 190 L72 190 Z" fill="#1F4E79"/><path d="M95 190 L95 165 L108 165 L108 190 Z" fill="#1F4E79"/><path d="M148 190 L148 165 L161 165 L161 190 Z" fill="#1F4E79"/></g><g stroke="#FFFFFF" stroke-width="5" stroke-linejoin="round" stroke-linecap="round"><path d="M60 200 C60 178 78 168 96 168 C96 168 96 182 96 190 C104 182 112 176 120 176 C120 176 120 190 118 198 C128 190 138 186 146 188 C146 188 146 200 140 208 C150 200 162 198 172 202 C182 206 190 214 196 226 C196 226 190 236 178 236 L78 236 C66 236 60 222 60 210 Z" fill="#1F4E79"/></g></svg>