<svg xmlns="http://www.w3.org/2000/svg" viewBox="0 0 256 256"><defs><radialGradient id="scoby" cx="50%" cy="50%" r="50%"><stop offset="0%" stop-color="#c9922f"/><stop offset="60%" stop-color="#8f9a3d"/><stop offset="100%" stop-color="#6f7a30"/></radialGradient></defs><g><path d="M118 34 C116 30 117 26 121 25 C126 23 131 24 133 28 C135 32 136 37 135 41 C142 42 148 46 150 52 C152 58 151 62 148 65 L146 68 C160 76 170 92 171 112 C172 140 173 168 172 190 C171 205 168 214 156 220 C144 226 112 226 100 220 C88 214 85 205 84 190 C83 168 84 140 85 112 C86 92 96 76 110 68 L108 65 C105 62 104 58 106 52 C108 46 114 42 121 41 C120 37 118 33 118 34 Z" fill="#1f4d33" stroke="#173d29" stroke-width="2"/><path d="M128 30 C132 20 140 14 148 12 C144 20 138 26 132 30 C138 27 146 25 152 27 C146 33 138 36 130 34" fill="none" stroke="#7f9a6e" stroke-width="4" stroke-linecap="round"/><g opacity="0.9"><circle cx="128" cy="180" r="36" fill="url(#scoby)"/><circle cx="128" cy="180" r="28" fill="none" stroke="#7c8a34" stroke-width="3"/><circle cx="128" cy="180" r="20" fill="none" stroke="#b9862e" stroke-width="3"/><circle cx="128" cy="180" r="12" fill="none" stroke="#7c8a34" stroke-width="3"/><path d="M128 144 C140 150 148 158 150 170" fill="none" stroke="#c9922f" stroke-width="2" stroke-linecap="round"/><path d="M106 165 C112 172 116 180 116 190" fill="none" stroke="#8f9a3d" stroke-width="2" stroke-linecap="round"/></g><g fill="#f3ecd8" opacity="0.95"><circle cx="104" cy="205" r="4.5"/><circle cx="116" cy="140" r="3.5"/><circle cx="96" cy="165" r="3"/><circle cx="112" cy="110" r="3"/><circle cx="100" cy="130" r="2.5"/></g><path d="M86 148 C105 141 151 141 170 148" fill="none" stroke="#e7d9b0" stroke-width="7" stroke-linecap="round"/><g stroke="#a9895a" stroke-width="1.5" stroke-linecap="round"><line x1="92" y1="146" x2="95" y2="149"/><line x1="100" y1="144" x2="103" y2="147"/><line x1="108" y1="143" x2="111" y2="146"/><line x1="116" y1="142" x2="119" y2="145"/><line x1="124" y1="142" x2="127" y2="145"/><line x1="132" y1="142" x2="135" y2="145"/><line x1="140" y1="143" x2="143" y2="146"/><line x1="148" y1="144" x2="151" y2="147"/><line x1="156" y1="146" x2="159" y2="149"/><line x1="164" y1="148" x2="167" y2="151"/></g></g></svg>