<svg xmlns="http://www.w3.org/2000/svg" viewBox="0 0 256 256"><defs><radialGradient id="cupGrad" cx="50%" cy="35%" r="60%"><stop offset="0%" stop-color="#2D2A26"/><stop offset="100%" stop-color="#FF6F59"/></radialGradient><linearGradient id="creamGrad" x1="0%" y1="0%" x2="0%" y2="100%"><stop offset="0%" stop-color="#F5A2E2"/><stop offset="100%" stop-color="#FF6F59"/></linearGradient><linearGradient id="leafGrad" x1="0%" y1="0%" x2="0%" y2="100%"><stop offset="0%" stop-color="#4A5E2A"/><stop offset="100%" stop-color="#FF6F59"/></linearGradient></defs><circle cx="128" cy="128" r="104" fill="url(#cupGrad)"/><circle cx="128" cy="128" r="104" fill="none" stroke="#2D2A26" stroke-width="3"/><g><path d="M128 128 C 108 108 118 118 128 128 C 128 138 128 148 128 152 C 148 152 128 152 128 152 C 128 152 128 138 128 138 C 138 138 128 138 128 138 Z" fill="url(#leafGrad)" stroke="#FF6F59" stroke-width="2"/><path d="M128 128 C 108 108 118 118 128 128 C 128 138 128 148 128 152 C 148 152 128 152 128 152 C 128 152 128 138 128 138 Z" fill="none" stroke="#FF6F59" stroke-width="2" stroke-linecap="round"/><path d="M128 128 C 108 108 118 118 128 128 C 128 138 128 148 128 152 C 148 152 128 152 128 152 C 128 152 128 138 128 138 Z" fill="none" stroke="#FF6F59" stroke-width="2" stroke-linecap="round"/><path d="M128 128 C 108 108 118 118 128 128 C 128 138 128 148 128 152 C 148 152 128 152 128 152 C 128 152 128 138 128 138 Z" fill="none" stroke="#FF6F59" stroke-width="2" stroke-linecap="round"/><path d="M128 128 C 108 108 118 118 128 128 C 128 138 128 148 128 152 C 148 152 128 152 128 152 C 128 152 128 138 128 138 Z" fill="url(#leafGrad)" stroke="#FF6F59" stroke-width="2" stroke-linejoin="round"/><path d="M128 128 C 108 108 118 118 128 128 C 128 138 128 148 128 152 C 148 152 128 152 128 152 C 128 152 128 138 128 138 Z" fill="url(#leafGrad)" stroke="#FF6F59" stroke-width="2" stroke-linecap="round"/><path d="M128 128 C 108 108 118 118 128 128 C 128 138 128 148 128 152 C 148 152 128 152 128 152 C 128 152 128 138 128 138 Z" fill="url(#leafGrad)" stroke="#FF6F59" stroke-width="2" stroke-linecap="round"/><path d="M128 128 C 108 108 118 118 128 128 C 128 138 128 148 128 152 C 148 152 128 152 128 152 C 128 152 128 138 128 138 Z" fill="url(#leafGrad)" stroke="#FF6F59" stroke-width="2" stroke-linecap="round"/></g></svg>