<svg xmlns="http://www.w3.org/2000/svg" viewBox="0 0 256 256"><rect x="-9999" y="-9999" width="19998" height="19998" fill="#FAF3E7"/><defs><linearGradient id="cupshade" x1="0" y1="0" x2="1" y2="1"><stop offset="0" stop-color="#FFFDF9"/><stop offset="1" stop-color="#F3EDE2"/></linearGradient></defs><circle cx="128" cy="128" r="104" fill="#2D2A26"/><g><rect x="150" y="78" width="16" height="46" rx="8" fill="#FF6F59" transform="rotate(-32 158 101)"/><path d="M92 96 L164 96 L154 190 Q154 202 142 202 L114 202 Q102 202 102 190 Z" fill="url(#cupshade)"/><path d="M97 96 Q92 140 100 190 Q101 198 108 200 L100 200 Q92 200 91 190 Q84 140 90 96 Z" fill="#FFFFFF" opacity="0.85"/><path d="M96 100 Q128 92 160 100 Q150 108 128 110 Q106 108 96 100 Z" fill="#FFC145"/><path d="M99 108 Q128 118 157 108 Q150 122 128 126 Q106 122 99 108 Z" fill="#FF6F59"/><path d="M103 124 Q128 136 153 124 Q147 140 128 144 Q109 140 103 124 Z" fill="#4CAF7D"/><path d="M107 140 Q128 150 149 140 Q144 154 128 158 Q112 154 107 140 Z" fill="#FFC145"/><circle cx="84" cy="78" r="6" fill="#FF6F59"/><circle cx="104" cy="64" r="7" fill="#FFC145"/><circle cx="128" cy="58" r="5" fill="#4CAF7D"/><circle cx="150" cy="66" r="6" fill="#FF6F59"/></g></svg>