<svg xmlns="http://www.w3.org/2000/svg" viewBox="0 0 256 256"><rect x="-9999" y="-9999" width="19998" height="19998" fill="#FFF5E2"/><circle cx="128" cy="128" r="104" fill="#FFF5E2"/><circle cx="128" cy="128" r="104" fill="#FFF5E2"/><path d="M128 60 C160 60 196 100 196 128 C196 150 160 150 128 150 C150 150 128 150 128 128 Z" fill="#FFFFFF"/><path d="M128 160 C128 150 128 128 128 128 C128 150 128 150 128 150 C150 150 128 150 128 128 Z" fill="#FFFFFF"/><path d="M128 160 C128 150 128 128 128 128 C128 150 128 150 128 150 C150 150 128 150 128 128 Z" fill="#FFFFFF"/><path d="M128 160 C128 150 128 128 128 128 C128 150 128 150 128 150 C150 150 128 150 128 128 Z" fill="#FFFFFF"/><path d="M128 160 C128 150 128 128 128 128 C128 150 128 150 128 150 C150 150 128 150 128 128 Z" fill="#FFFFFF"/></svg>