<svg xmlns="http://www.w3.org/2000/svg" viewBox="0 0 256 256"><rect x="-9999" y="-9999" width="19998" height="19998" fill="#ffffff"/><defs><radialGradient id="orangeGrad" cx="40%" cy="35%" r="70%"><stop offset="0%" stop-color="#ffb15e"/><stop offset="100%" stop-color="#f7902e"/></radialGradient><linearGradient id="dropGrad" x1="20%" y1="0%" x2="80%" y2="100%"><stop offset="0%" stop-color="#d4ea3a"/><stop offset="100%" stop-color="#a8d321"/></linearGradient></defs><circle cx="128" cy="118" r="78" fill="url(#orangeGrad)"/><g stroke="#ffffff" stroke-width="5" stroke-linecap="round" fill="none" opacity="0.9"><path d="M128 118 L128 46"/><path d="M128 118 L184 66"/><path d="M128 118 L196 108"/><path d="M128 118 L188 168"/><path d="M128 118 L138 190"/><path d="M128 118 L78 182"/><path d="M128 118 L64 128"/><path d="M128 118 L72 68"/></g><circle cx="128" cy="118" r="17" fill="#ffffff" opacity="0.85"/><path d="M108 118 C 60 150, 50 205, 90 232 C 120 252, 160 248, 178 220 C 196 192, 182 150, 148 118 C 138 108, 118 108, 108 118 Z" fill="url(#dropGrad)"/><path d="M118 122 C 100 108, 92 82, 104 60 C 116 82, 118 108, 128 122 Z" fill="#5aa72a"/><path d="M132 120 C 138 96, 160 78, 184 78 C 174 100, 156 114, 140 124 Z" fill="#6fbf2c"/><ellipse cx="96" cy="165" rx="18" ry="11" fill="#ffffff" opacity="0.8" transform="rotate(-25 96 165)"/></svg>