<svg xmlns="http://www.w3.org/2000/svg" viewBox="0 0 256 256"><defs><clipPath id="headClip"><path d="M 108 66 C 96 68 86 76 80 88 C 74 100 74 112 78 122 C 70 126 64 134 62 142 C 60 150 62 158 68 162 C 66 170 68 178 74 182 C 80 186 90 186 96 182 L 150 182 C 158 182 165 176 166 168 L 168 148 C 178 146 186 138 186 128 C 186 120 182 114 176 110 C 176 98 168 86 156 78 C 144 70 130 66 118 66 C 114 66 111 66 108 66 Z"/></clipPath></defs><circle cx="128" cy="128" r="96" fill="#8ECAE6"/><g clip-path="url(#headClip)"><rect x="40" y="66" width="160" height="70" fill="#2A4759"/><path d="M 60 190 C 60 150 90 132 128 132 C 166 132 196 150 196 190 Z" fill="#F4A261" opacity="0.95"/><path d="M 74 190 C 74 158 98 144 128 144 C 158 144 182 158 182 190 Z" fill="#F4A261" opacity="0.9"/><path d="M 88 190 C 88 166 106 156 128 156 C 150 156 168 166 168 190 Z" fill="#F4A261" opacity="0.85"/><path d="M 102 190 C 102 174 114 168 128 168 C 142 168 154 174 154 190 Z" fill="#F4A261"/></g><path d="M 108 66 C 96 68 86 76 80 88 C 74 100 74 112 78 122 C 70 126 64 134 62 142 C 60 150 62 158 68 162 C 66 170 68 178 74 182 C 80 186 90 186 96 182 L 150 182 C 158 182 165 176 166 168 L 168 148 C 178 146 186 138 186 128 C 186 120 182 114 176 110 C 176 98 168 86 156 78 C 144 70 130 66 118 66" fill="none" stroke="#2A4759" stroke-width="6" stroke-linecap="round" stroke-linejoin="round"/><g fill="#5B8FB9" stroke="#2A4759" stroke-width="3" stroke-linejoin="round"><path d="M 118 66 C 112 56 100 52 92 58 C 86 63 86 72 92 78 C 100 84 112 80 118 66 Z"/><path d="M 118 66 C 116 54 124 46 134 48 C 142 50 146 58 142 66 C 137 76 124 78 118 66 Z"/><path d="M 118 66 C 128 60 138 64 140 74 C 142 82 135 90 126 88 C 116 86 112 76 118 66 Z"/></g><path d="M 74 196 C 84 210 100 216 116 214 C 132 212 148 202 152 188" fill="none" stroke="#2A4759" stroke-width="7" stroke-linecap="round"/><path d="M 68 200 C 62 208 60 218 64 226" fill="none" stroke="#2A4759" stroke-width="6" stroke-linecap="round"/><path d="M 156 196 C 162 204 164 214 160 222" fill="none" stroke="#2A4759" stroke-width="6" stroke-linecap="round"/></svg>