<svg xmlns="http://www.w3.org/2000/svg" viewBox="0 0 256 256"><defs><linearGradient id="honey" x1="0" y1="0" x2="0" y2="1"><stop offset="0" stop-color="#FBF7E2"/><stop offset="1" stop-color="#FBF7E2"/></linearGradient><linearGradient id="drop" x1="0" y1="0" x2="0" y2="1"><stop offset="0" stop-color="#FBF7E2"/><stop offset="1" stop-color="#FBF7E2"/></linearGradient></defs><circle cx="128" cy="128" r="104" fill="none" stroke="#FBF7E2" stroke-width="3"/><circle cx="128" cy="128" r="96" fill="none" stroke="#FBF7E2" stroke-width="1.5" opacity="0.5"/><g><path d="M128 128 C 108 108 118 118 128 128 C 128 138 128 148 128 152 C 148 152 138 152 128 152 C 128 152 118 152 128 152 Z" fill="url(#honey)"/><path d="M128 128 C 108 108 118 118 128 128 C 128 138 128 148 128 152 C 148 152 138 152 128 152 Z" fill="none" stroke="#FBF7E2" stroke-width="2.5" stroke-linecap="round"/><path d="M128 128 C 108 108 118 118 128 128 C 128 138 128 148 128 152 C 148 152 138 152 128 152 Z" fill="none" stroke="#FBF7E2" stroke-width="2.5" stroke-linecap="round"/><path d="M128 128 C 108 108 118 118 128 128 C 128 138 128 148 128 152 C 148 152 138 152 128 152 Z" fill="none" stroke="#FBF7E2" stroke-width="2.5" stroke-linecap="round"/><path d="M128 128 C 108 108 118 118 128 128 C 128 138 128 148 128 152 C 148 152 138 152 128 152 Z" fill="none" stroke="#FBF7E2" stroke-width="2.5" stroke-linecap="round"/><path d="M128 128 C 108 108 118 118 128 128 C 128 138 128 148 128 152 C 148 152 138 152 128 152 Z" fill="none" stroke="#FBF7E2" stroke-width="2.5" stroke-linecap="round"/><path d="M128 128 C 108 108 118 118 128 128 C 128 138 128 148 128 152 C 148 152 138 152 128 152 Z" fill="none" stroke="#FBF7E2" stroke-width="2.5" stroke-linecap="round"/><path d="M128 128 C 108 108 118 118 128 128 C 128 138 128 148 128 152 C 148 152 138 152 128 152 Z" fill="none" stroke="#FBF7E2" stroke-width="2.5" stroke-linecap="round"/></g></svg>