<svg xmlns="http://www.w3.org/2000/svg" viewBox="0 0 256 256"><rect x="-9999" y="-9999" width="19998" height="19998" fill="#FBF3E3"/><defs><linearGradient id="honeyGrad" x1="0" y1="0" x2="0" y2="1"><stop offset="0%" stop-color="#F2A93B"/><stop offset="55%" stop-color="#E08324"/><stop offset="100%" stop-color="#B85A18"/></linearGradient><linearGradient id="dropGrad2" x1="0" y1="0" x2="0" y2="1"><stop offset="0%" stop-color="#F2A93B"/><stop offset="100%" stop-color="#C4671D"/></linearGradient></defs><g stroke="#C1791E" stroke-width="1.5" fill="none" opacity="0.18"><polygon points="48,40 66,50 66,70 48,80 30,70 30,50"/><polygon points="84,20 102,30 102,50 84,60 66,50 66,30"/><polygon points="120,40 138,50 138,70 120,80 102,70 102,50"/><polygon points="156,20 174,30 174,50 156,60 138,50 138,30"/><polygon points="192,40 210,50 210,70 192,80 174,70 174,50"/><polygon points="48,110 66,120 66,140 48,150 30,140 30,120"/><polygon points="192,110 210,120 210,140 192,150 174,140 174,120"/><polygon points="48,180 66,190 66,210 48,220 30,210 30,190"/><polygon points="84,200 102,210 102,230 84,240 66,230 66,210"/><polygon points="120,180 138,190 138,210 120,220 102,210 102,190"/><polygon points="156,200 174,210 174,230 156,240 138,230 138,210"/><polygon points="192,180 210,190 210,210 192,220 174,210 174,190"/></g><polygon points="128,34 202,76 202,160 128,202 54,160 54,76" fill="#FBF3E3" stroke="#B85A18" stroke-width="6"/><path d="M128 208 C126 214 124 220 128 226 C132 220 130 214 128 208 Z" fill="url(#dropGrad2)"/><ellipse cx="128" cy="212" rx="5" ry="6" fill="#D9791F" opacity="0.0"/><path d="M118 196 C118 188 124 184 128 178 C132 184 138 188 138 196 C138 204 116 204 118 196 Z" fill="url(#dropGrad2)"/><path d="M128 92 C112 116 96 132 96 154 C96 176 110 190 128 190 C146 190 160 176 160 154 C160 132 144 116 128 92 Z" fill="url(#honeyGrad)"/><ellipse cx="117" cy="140" rx="9" ry="13" fill="#FCEBCB" opacity="0.85"/><g transform="translate(128,132)"><ellipse cx="-14" cy="-4" rx="14" ry="9" fill="#FDF6E3" opacity="0.5" transform="rotate(-18)"/><ellipse cx="14" cy="-4" rx="14" ry="9" fill="#FDF6E3" opacity="0.5" transform="rotate(18)"/><ellipse cx="0" cy="2" rx="9" ry="7" fill="#3B2415"/><path d="M-9 2 C-9 -4 -4 -8 0 -8 C4 -8 9 -4 9 2 Z" fill="#3B2415"/><rect x="-2.5" y="5" width="5" height="8" rx="2" fill="#3B2415"/><circle cx="0" cy="-9" r="3.4" fill="#3B2415"/><line x1="-1.5" y1="-11" x2="-5" y2="-15" stroke="#3B2415" stroke-width="1.4" stroke-linecap="round"/><line x1="1.5" y1="-11" x2="5" y2="-15" stroke="#3B2415" stroke-width="1.4" stroke-linecap="round"/></g></svg>