<svg xmlns="http://www.w3.org/2000/svg" viewBox="0 0 256 256"><defs><radialGradient id="flameGrad" cx="50%" cy="30%" r="75%"><stop offset="0%" stop-color="#F4A83B"/><stop offset="100%" stop-color="#D64541"/></radialGradient></defs><circle cx="128" cy="128" r="108" fill="#2B2B2B"/><circle cx="128" cy="128" r="98" fill="none" stroke="#FFFFFF" stroke-width="3"/><g fill="#FFFFFF"><path d="M92 150 L92 172 C92 178 96 182 102 182 L154 182 C160 182 164 178 164 172 L164 150 Z"/><path d="M96 100 C90 78 104 58 128 58 C152 58 166 78 160 100 C170 106 176 116 174 128 C172 142 158 150 142 150 L114 150 C98 150 84 142 82 128 C80 116 86 106 96 100 Z"/></g><path d="M128 78 C136 90 142 98 138 110 C136 118 128 122 122 116 C116 110 118 100 124 94 C118 96 112 104 114 112 C110 104 112 92 122 84 C118 90 120 96 124 98 C122 88 124 82 128 78 Z" fill="url(#flameGrad)"/><g fill="#FFFFFF"><g transform="translate(128,168) rotate(-35)"><rect x="-3" y="-4" width="46" height="6" rx="3"/><g transform="translate(46,-4)"><rect x="0" y="-7" width="5" height="14" rx="2"/><rect x="7" y="-8" width="5" height="16" rx="2"/><rect x="14" y="-7" width="5" height="14" rx="2"/></g></g><g transform="translate(128,168) rotate(35)"><rect x="-43" y="-4" width="46" height="6" rx="3"/><g transform="translate(-52,-4)"><rect x="0" y="-7" width="5" height="14" rx="2"/><rect x="7" y="-8" width="5" height="16" rx="2"/><rect x="14" y="-7" width="5" height="14" rx="2"/></g></g></g></svg>