<svg xmlns="http://www.w3.org/2000/svg" viewBox="0 0 256 256"><defs><linearGradient id="forestGrad" x1="0" y1="0" x2="0" y2="1"><stop offset="0" stop-color="#1c1c1e"/><stop offset="1" stop-color="#1c1c1e"/></linearGradient><linearGradient id="woodGrad" x1="0" y1="0" x2="0" y2="1"><stop offset="0" stop-color="#f2f2f2"/><stop offset="1" stop-color="#f2f2f2"/></linearGradient></defs><circle cx="128" cy="128" r="104" fill="none" stroke="url(#forestGrad)" stroke-width="3"/><circle cx="128" cy="128" r="104" fill="none" stroke="url(#woodGrad)" stroke-width="2.5"/><g><path d="M128 128 C 108 108 108 128 128 C 108 150 128 150 128 C 150 150 128 150 128 Z" fill="url(#woodGrad)" stroke="#f2f2f2" stroke-width="2"/><path d="M128 128 C 108 108 128 128 128 C 150 150 128 150 128 Z" fill="url(#woodGrad)" stroke="#f2f2f2" stroke-width="2"/><path d="M128 128 C 108 108 128 128 128 C 150 150 128 150 128 Z" fill="none" stroke="#1c1c1e" stroke-width="2"/><path d="M128 128 C 108 108 128 128 128 C 150 150 128 150 128 Z" fill="none" stroke="#1c1c1e" stroke-width="2"/><path d="M128 128 C 108 108 128 128 128 C 150 150 128 150 128 Z" fill="url(#woodGrad)" stroke="#f2f2f2" stroke-width="2"/><path d="M128 128 C 108 108 128 128 128 C 150 150 128 150 128 Z" fill="url(#woodGrad)" stroke="#f2f2f2" stroke-width="2"/><path d="M128 128 C 108 108 128 128 128 C 150 150 128 150 128 Z" fill="url(#woodGrad)" stroke="#1c1c1e" stroke-width="2"/><path d="M128 128 C 108 108 128 128 128 C 150 150 128 150 128 Z" fill="url(#woodGrad)" stroke="#1c1c1e" stroke-width="2"/><path d="M128 128 C 108 108 128 128 128 C 150 150 128 150 128 Z" fill="url(#woodGrad)" stroke="#1c1c1e" stroke-width="2"/><path d="M128 128 C 108 108 128 128 128 C 150 150 128 150 128 Z" fill="url(#woodGrad)" stroke="#1c1c1e" stroke-width="2"/></g></svg>