<svg xmlns="http://www.w3.org/2000/svg" viewBox="0 0 256 256"><rect x="-9999" y="-9999" width="19998" height="19998" fill="#0b1f14"/><defs><linearGradient id="foam" x1="0" y1="0" x2="0" y2="1"><stop offset="0" stop-color="#f4d98a"/><stop offset="1" stop-color="#c9962f"/></linearGradient><radialGradient id="glow" cx="50%" cy="40%" r="60%"><stop offset="0" stop-color="#3d6b45" stop-opacity="0.5"/><stop offset="1" stop-color="#3d6b45" stop-opacity="0"/></radialGradient></defs><g><polygon points="128,14 226,66 226,178 128,242 30,178 30,66" fill="#0e2418" stroke="#c9962f" stroke-width="5" stroke-linejoin="round"/><polygon points="128,30 213,74 213,172 128,224 43,172 43,74" fill="none" stroke="#4a7a52" stroke-width="3" opacity="0.7"/><polygon points="128,42 203,80 203,164 128,210 53,164 53,80" fill="none" stroke="#6b8f5e" stroke-width="1.6" opacity="0.5"/><g opacity="0.35" stroke="#e7c877" stroke-width="2"><line x1="128" y1="128" x2="128" y2="20"/><line x1="128" y1="128" x2="190" y2="40"/><line x1="128" y1="128" x2="220" y2="90"/><line x1="128" y1="128" x2="220" y2="160"/><line x1="128" y1="128" x2="66" y2="40"/><line x1="128" y1="128" x2="36" y2="90"/><line x1="128" y1="128" x2="36" y2="160"/></g><circle cx="128" cy="120" r="90" fill="url(#glow)"/><path d="M128 48 L150 92 L138 92 L162 130 L146 130 L172 168 L120 168 L108 168 L134 130 L118 130 L142 92 L130 92 Z" fill="#173d24"/><path d="M120 168 L136 168 L142 196 C142 206 114 206 114 196 Z" fill="#173d24"/><path d="M104 168 L152 168 L156 200 L100 200 Z" fill="#eee3c6"/><path d="M152 172 C168 168 176 178 172 190 C168 200 156 198 154 192 Z" fill="#eee3c6"/><path d="M154 176 C166 173 172 180 169 188 C166 195 158 194 157 190 Z" fill="#0e2418" opacity="0.25"/><path d="M100 160 C96 150 112 142 128 148 C144 142 160 150 156 160 C152 170 148 158 128 162 C108 158 104 170 100 160 Z" fill="url(#foam)"/><path d="M104 200 L100 210 L156 210 L152 200 Z" fill="#d8c7a0"/><g fill="#d2a531"><path d="M78 150 C68 140 66 122 78 112 C82 126 84 136 90 144 C86 150 82 152 78 150 Z"/><path d="M78 150 C74 142 74 130 80 122" stroke="#8a6a1f" stroke-width="1.5" fill="none"/><path d="M178 150 C188 140 190 122 178 112 C174 126 172 136 166 144 C170 150 174 152 178 150 Z"/><path d="M178 150 C182 142 182 130 176 122" stroke="#8a6a1f" stroke-width="1.5" fill="none"/></g><path d="M60 78 C90 66 166 66 196 78" fill="none" stroke="#5c4326" stroke-width="2" stroke-dasharray="3 4" opacity="0.6"/><path d="M60 178 C90 190 166 190 196 178" fill="none" stroke="#5c4326" stroke-width="2" stroke-dasharray="3 4" opacity="0.6"/></g></svg>