<svg xmlns="http://www.w3.org/2000/svg" viewBox="0 0 256 256"><defs><linearGradient id="stoneGrad" x1="0" y1="0" x2="0" y2="1"><stop offset="0" stop-color="#fdfc3a"/><stop offset="1" stop-color="#fdfc3a"/></linearGradient><linearGradient id="columnGrad" x1="0" y1="0" x2="0" y2="1"><stop offset="0" stop-color="#fdfc3a"/><stop offset="1" stop-color="#fdfc3a"/></linearGradient><linearGradient id="goldGrad" x1="0" y1="0" x2="0" y2="1"><stop offset="0" stop-color="#d9a12a"/><stop offset="1" stop-color="#d9a12a"/></linearGradient></defs><circle cx="128" cy="128" r="104" fill="none" stroke="#1a1a1a" stroke-width="3"/><circle cx="128" cy="128" r="96" fill="none" stroke="#1a1a1a" stroke-width="3"/><circle cx="128" cy="128" r="96" fill="url(#stoneGrad)"/><g stroke="#d9a12a" stroke-width="2" opacity="0.5"><path d="M128 128 C118 118 108 128 108 128 C118 128 128 118 128 Z"/><path d="M128 128 C118 118 108 128 108 128 C118 128 128 118 128 Z"/><path d="M128 128 C118 118 108 128 108 128 C118 128 128 118 128 Z"/><path d="M128 128 C118 118 108 128 108 128 C118 128 128 118 128 Z"/><path d="M128 128 C118 118 108 128 108 128 C118 128 128 118 128 Z"/><path d="M128 128 C118 118 108 128 108 128 C118 128 128 118 128 Z"/><path d="M128 128 C118 118 108 128 108 128 C118 128 128 118 128 Z"/></g><path d="M128 128 C118 118 108 128 108 128" fill="none" stroke="#1a1a1a" stroke-width="3" stroke-linecap="round"/><path d="M128 128 C118 118 108 128 108 128" stroke="#1a1a1a" stroke-width="3" stroke-linecap="round"/><path d="M128 128 C118 118 108 128 108 128" stroke="#1a1a1a" stroke-width="3" stroke-linecap="round"/><path d="M128 128 C118 118 108 128 108 128" stroke="#1a1a1a" stroke-width="3" stroke-linecap="round"/><path d="M128 128 C118 118 108 128 108 128" stroke="#1a1a1a" stroke-width="3" stroke-linecap="round"/></svg>