<svg xmlns="http://www.w3.org/2000/svg" viewBox="0 0 256 256"><rect x="-9999" y="-9999" width="19998" height="19998" fill="#2b1f18"/><defs><radialGradient id="badgeGrad" cx="50%" cy="40%" r="75%"><stop offset="0%" stop-color="#3a2b20"/><stop offset="100%" stop-color="#241a14"/></radialGradient><linearGradient id="goldGrad" x1="0%" y1="0%" x2="100%" y2="100%"><stop offset="0%" stop-color="#f0cf7a"/><stop offset="50%" stop-color="#d4a24e"/><stop offset="100%" stop-color="#a97c33"/></linearGradient></defs><circle cx="128" cy="128" r="112" fill="url(#badgeGrad)" stroke="#a97c33" stroke-width="3"/><circle cx="128" cy="128" r="100" fill="none" stroke="#c99a4f" stroke-width="1.5" opacity="0.5"/><g stroke="#c99a4f" stroke-width="2.2" fill="none" opacity="0.85"><path d="M 40 92 h10 v-10 h10 v10 h-10 M 60 82 v10"/></g><g fill="none" stroke="#c99a4f" stroke-width="2" opacity="0.7"><g id="meanderUnit"><path d="M0,0 h8 v8 h-4 v-4 h-4 z"/></g></g><g opacity="0.75" stroke="#c9a35a" stroke-width="1.8" fill="none"><path d="M 30 128 a98 98 0 0 1 14 -55" stroke-dasharray="6 4"/><path d="M 226 128 a98 98 0 0 0 -14 -55" stroke-dasharray="6 4"/><path d="M 30 128 a98 98 0 0 0 14 55" stroke-dasharray="6 4"/><path d="M 226 128 a98 98 0 0 1 -14 55" stroke-dasharray="6 4"/></g><g fill="none" stroke="url(#goldGrad)" stroke-width="4" stroke-linecap="round"><path d="M 70 205 C 70 130 62 90 78 55"/><path d="M 186 205 C 186 130 194 90 178 55"/><path d="M 70 205 h116"/><path d="M 78 55 h100"/></g><g fill="none" stroke="#8a6a3a" stroke-width="1.5" opacity="0.6"><path d="M 74 195 C 74 150 70 110 80 70"/><path d="M 182 195 C 182 150 186 110 176 70"/></g><rect x="90" y="178" width="76" height="18" rx="2" fill="#3d2c20" stroke="url(#goldGrad)" stroke-width="2.5"/><g stroke="url(#goldGrad)" stroke-width="2.5" fill="none" stroke-linecap="round"><path d="M 100 178 V 96"/><path d="M 112 178 V 92"/><path d="M 124 178 V 90"/><path d="M 132 178 V 90"/><path d="M 144 178 V 92"/><path d="M 156 178 V 96"/></g><path d="M 96 150 q6 -8 0 -16 q-6 -8 4 -18" stroke="#241a14" stroke-width="2" fill="none" opacity="0.6"/><path d="M 160 140 q-6 -6 0 -14 q6 -8 -2 -20" stroke="#241a14" stroke-width="2" fill="none" opacity="0.6"/><rect x="88" y="84" width="80" height="12" rx="2" fill="#3d2c20" stroke="url(#goldGrad)" stroke-width="2.5"/><g transform="translate(128,74)"><path d="M -18 0 Q 0 -22 18 0" stroke="url(#goldGrad)" stroke-width="4" fill="none" stroke-linecap="round"/><path d="M -12 8 Q 0 -8 12 8" stroke="url(#goldGrad)" stroke-width="3.5" fill="none" stroke-linecap="round" opacity="0.85"/><path d="M -6 14 Q 0 4 6 14" stroke="url(#goldGrad)" stroke-width="3" fill="none" stroke-linecap="round" opacity="0.7"/></g><g transform="translate(128,46)"><circle cx="0" cy="0" r="9" fill="none" stroke="url(#goldGrad)" stroke-width="3"/><line x1="0" y1="-15" x2="0" y2="-9" stroke="url(#goldGrad)" stroke-width="2.5"/><line x1="0" y1="9" x2="0" y2="15" stroke="url(#goldGrad)" stroke-width="2.5"/><line x1="-15" y1="0" x2="-9" y2="0" stroke="url(#goldGrad)" stroke-width="2.5"/><line x1="9" y1="0" x2="15" y2="0" stroke="url(#goldGrad)" stroke-width="2.5"/><line x1="-11" y1="-11" x2="-7" y2="-7" stroke="url(#goldGrad)" stroke-width="2"/><line x1="7" y1="7" x2="11" y2="11" stroke="url(#goldGrad)" stroke-width="2"/><line x1="11" y1="-11" x2="7" y2="-7" stroke="url(#goldGrad)" stroke-width="2"/><line x1="-7" y1="7" x2="-11" y2="11" stroke="url(#goldGrad)" stroke-width="2"/></g><g fill="none" stroke="#c99a4f" stroke-width="1.8" opacity="0.55"><path d="M 44 128 h8 v-8 h8 v8 h8 v8 h-8 v8 h-8 v-8 h-8 z"/><path d="M 180 128 h8 v-8 h8 v8 h8 v8 h-8 v8 h-8 v-8 h-8 z"/></g><circle cx="128" cy="128" r="112" fill="none" stroke="#1a120d" stroke-width="2" opacity="0.5"/></svg>