<svg xmlns="http://www.w3.org/2000/svg" viewBox="0 0 256 256"><rect x="-9999" y="-9999" width="19998" height="19998" fill="#FFFFFF"/><defs><linearGradient id="goldGrad" x1="0%" y1="0%" x2="100%" y2="100%"><stop offset="0%" stop-color="#E9C46A"/><stop offset="100%" stop-color="#C9A24B"/></linearGradient></defs><circle cx="128" cy="128" r="106" fill="none" stroke="#F8F1E5" stroke-width="3"/><circle cx="128" cy="128" r="92" fill="none" stroke="url(#goldGrad)" stroke-width="1.5" opacity="0.8"/><g fill="none" stroke="#1B1B1B" stroke-width="6" stroke-linecap="round" stroke-linejoin="round"><path d="M132,128 C150,108 178,96 196,100 C182,104 168,112 158,124 C168,120 184,116 198,120 C182,128 168,136 156,132"/><path d="M132,128 C150,148 178,160 196,156 C182,152 168,144 158,132 C168,136 184,140 198,136 C182,128 168,120 156,124"/><path d="M132,128 C112,148 84,158 66,150 C80,150 96,146 106,136 C90,140 72,144 58,136 C76,132 92,128 100,120 C86,120 68,122 56,116 C74,114 92,116 104,124 C112,130 122,132 132,128"/><path d="M56,116 C48,110 44,100 48,90"/><path d="M58,136 C48,140 40,148 40,160"/></g><circle cx="132" cy="128" r="5.5" fill="url(#goldGrad)"/></svg>