<svg xmlns="http://www.w3.org/2000/svg" viewBox="0 0 256 256"><defs><linearGradient id="sunGrad" x1="0" y1="0" x2="0" y2="1"><stop offset="0" stop-color="#FBF7E2"/><stop offset="1" stop-color="#FBF7E2"/></linearGradient></defs><circle cx="128" cy="128" r="112" fill="url(#sunGrad)"/><circle cx="128" cy="128" r="108" fill="none" stroke="#222222" stroke-width="2"/><circle cx="128" cy="128" r="96" fill="none" stroke="#222222" stroke-width="2"/><circle cx="128" cy="128" r="90" fill="none" stroke="#222222" stroke-width="2"/><g><path d="M128 128 C 100 108 108 108 128 C 110 128 118 128 128 C 128 128 128 108 128 Z" fill="url(#sunGrad)"/><path d="M128 128 C 100 108 108 128 128 C 110 128 118 128 128 C 128 128 128 108 128 Z" fill="#FFFFFF"/><path d="M128 128 C 100 108 108 128 128 C 110 128 118 128 128 C 128 128 128 108 128 Z" fill="#FFFFFF"/><path d="M128 128 C 100 108 108 128 128 C 110 128 118 128 128 C 128 128 128 108 128 Z" fill="#FFFFFF"/><path d="M128 128 C 100 108 108 128 128 C 110 128 118 128 128 C 128 128 128 108 128 Z" fill="#FFFFFF"/><path d="M128 128 C 100 108 108 128 128 C 110 128 118 128 128 C 128 128 128 108 128 Z" fill="#FFFFFF"/><path d="M128 128 C 100 108 108 128 128 C 110 128 118 128 128 C 128 128 128 108 128 Z" fill="#FFFFFF"/></g></svg>