<svg xmlns="http://www.w3.org/2000/svg" viewBox="0 0 256 256"><defs><clipPath id="circleClip"><circle cx="128" cy="128" r="98"/></clipPath></defs><circle cx="128" cy="128" r="104" fill="#ffffff"/><circle cx="128" cy="128" r="98" fill="#bfe8f5"/><g clip-path="url(#circleClip)"><g fill="#ffd93b"><rect x="116" y="18" width="12" height="22" rx="6" transform="rotate(0 122 29)"/><rect x="116" y="18" width="12" height="22" rx="6" transform="rotate(30 122 29)"/><rect x="116" y="18" width="12" height="22" rx="6" transform="rotate(-30 122 29)"/><rect x="116" y="18" width="12" height="22" rx="6" transform="rotate(60 122 29)"/><rect x="116" y="18" width="12" height="22" rx="6" transform="rotate(-60 122 29)"/><circle cx="122" cy="48" r="34"/></g><g><circle cx="70" cy="140" r="6" fill="#ffffff" opacity="0.9"/><circle cx="82" cy="128" r="4" fill="#ffffff" opacity="0.85"/><circle cx="60" cy="122" r="3" fill="#ffffff" opacity="0.8"/></g><g transform="translate(105,145) rotate(-8)"><ellipse cx="0" cy="0" rx="26" ry="18" fill="#ff6f5e"/><path d="M -26 0 L -40 -10 L -40 10 Z" fill="#ff6f5e"/><ellipse cx="6" cy="6" rx="14" ry="9" fill="#ffffff"/><circle cx="14" cy="-6" r="3" fill="#2b2b2b"/><path d="M 6 4 Q 14 10 20 4" stroke="#2b2b2b" stroke-width="2" fill="none" stroke-linecap="round"/></g><path d="M -20 205 Q 20 175 60 205 Q 100 235 140 205 Q 180 175 220 205 Q 250 225 280 205 L 280 260 L -20 260 Z" fill="#1f7ea3"/><path d="M -20 190 Q 20 160 60 190 Q 100 220 140 190 Q 180 160 220 190 Q 250 210 280 190 L 280 260 L -20 260 Z" fill="#2fb6a3"/></g><circle cx="128" cy="128" r="98" fill="none" stroke="#ffffff" stroke-width="8"/></svg>