<svg xmlns="http://www.w3.org/2000/svg" viewBox="0 0 256 256"><circle cx="134" cy="140" r="92" fill="#2EC4B6"/><circle cx="122" cy="126" r="92" fill="#FFF8F0"/><circle cx="122" cy="126" r="66" fill="none" stroke="#1B1B1E" stroke-width="4"/><circle cx="70" cy="172" r="9" fill="#2EC4B6"/><path d="M84,164 C100,150 108,130 118,112 C126,98 134,86 148,76 C138,90 132,104 130,118 C142,110 154,102 168,98 C158,110 148,122 140,134 C132,146 122,156 108,160 C112,148 118,138 126,128 C114,132 100,138 90,148 C86,152 82,158 84,164 Z" fill="#FF6B35"/><path d="M148,76 C158,70 170,72 176,80 C182,88 180,98 172,104 C168,96 162,90 154,86 C158,92 160,98 158,104 C150,100 142,94 138,86 C140,80 144,76 148,76 Z" fill="#FF6B35"/><ellipse cx="178" cy="70" rx="7" ry="14" fill="#FF6B35" transform="rotate(20 178 70)"/><ellipse cx="188" cy="78" rx="6" ry="12" fill="#FF6B35" transform="rotate(20 188 78)"/><rect x="182" y="84" width="6" height="18" rx="3" fill="#FF6B35" transform="rotate(20 185 93)"/></svg>