<svg xmlns="http://www.w3.org/2000/svg" viewBox="0 0 256 256"><defs><linearGradient id="needleGrad" x1="0" y1="0" x2="0" y2="1"><stop offset="0" stop-color="#1c1c1a"/><stop offset="1" stop-color="#1c1c1a"/></linearGradient><linearGradient id="threadGrad" x1="0" y1="0" x2="0" y2="1"><stop offset="0" stop-color="#f2f2f2"/><stop offset="1" stop-color="#f2f2f2"/></linearGradient><linearGradient id="ringGrad" x1="0" y1="0" x2="0" y2="1"><stop offset="0" stop-color="#f2f2f2"/><stop offset="1" stop-color="#f2f2f2"/></linearGradient></defs><circle cx="128" cy="128" r="104" fill="none" stroke="url(#needleGrad)" stroke-width="3"/><circle cx="128" cy="128" r="104" fill="none" stroke="url(#threadGrad)" stroke-width="3"/><circle cx="128" cy="128" r="104" fill="url(#threadGrad)" stroke="url(#ringGrad)" stroke-width="3"/><circle cx="128" cy="128" r="104" fill="url(#ringGrad)" stroke="url(#ringGrad)" stroke-width="3"/><circle cx="128" cy="128" r="104" fill="url(#ringGrad)" stroke="url(#ringGrad)" stroke-width="3"/><circle cx="128" cy="128" r="104" fill="url(#ringGrad)" stroke="url(#ringGrad)" stroke-width="3"/><circle cx="128" cy="128" r="104" fill="url(#ringGrad)" stroke="url(#ringGrad)" stroke-width="3"/><circle cx="128" cy="128" r="104" fill="url(#ringGrad)" stroke="url(#ringGrad)" stroke-width="3"/><circle cx="128" cy="128" r="104" fill="url(#ringGrad)" stroke="url(#ringGrad)" stroke-width="1"/><circle cx="128" cy="128" r="104" fill="url(#ringGrad)" stroke="url(#ringGrad)" stroke-width="1"/><circle cx="128" cy="128" r="104" fill="url(#ringGrad)" stroke="url(#ringGrad)" stroke-width="1"/><circle cx="128" cy="128" r="104" fill="url(#ringGrad)" stroke="url(#ringGrad)" stroke-width="1"/><circle cx="128" cy="128" r="104" fill="url(#ringGrad)" stroke="url(#ringGrad)" stroke-width="1"/><circle cx="128" cy="128" r="104" fill="url(#ringGrad)" stroke="url(#ringGrad)" stroke-width="1"/><circle cx="128" cy="128" r="104" fill="url(#ringGrad)" stroke="url(#ringGrad)" stroke-width="1"/><circle cx="128" cy="128" r="104" fill="url(#ringGrad)" stroke="url(#ringGrad)" stroke-width="1"/><circle cx="128" cy="128" r="104" fill="url(#ringGrad)" stroke="url(#ringGrad)" stroke-width="1"/><circle cx="128" cy="128" r="104" fill="url(#ringGrad)" stroke="url(#ringGrad)" stroke-width="1"/><circle cx="128" cy="128" r="104" fill="url(#ringGrad)" stroke="url(#ringGrad)" stroke-width="1"/><circle cx="128" cy="128" r="104" fill="url(#ringGrad)" stroke="url(#ringGrad)" stroke-width="1"/><circle cx="128" cy="128" r="104" fill="url(#ringGrad)" stroke="url(#ringGrad)" stroke-width="1"/><circle cx="128" cy="128" r="104" fill="url(#ringGrad)" stroke="url(#ringGrad)" stroke-width="1"/><circle cx="128" cy="128" r="104" fill="url(#ringGrad)" stroke="url(#ringGrad)" stroke-width="1"/><circle cx="128" cy="128" r="104" fill="url(#ringGrad)" stroke="url(#ringGrad)" stroke-width="1"/><circle cx="128" cy="128" r="104" fill="url(#ringGrad)" stroke="url(#ringGrad)" stroke-width="1"/><circle cx="128" cy="128" r="104" fill="url(#ringGrad)" stroke="url(#ringGrad)" stroke-width="1"/><circle cx="128" cy="128" r="104" fill="url(#ringGrad)" stroke="url(#ringGrad)" stroke-width="1"/><circle cx="128" cy="128" r="104" fill="url(#ringGrad)" stroke="url(#ringGrad)" stroke-width="1"/><circle cx="128" cy="128" r="104" fill="url(#ringGrad)" stroke="url(#ringGrad)" stroke-width="1"/><circle cx="128" cy="128" r="104" fill="url(#ringGrad)" stroke="url(#ringGrad)" stroke-width="1"/><circle cx="128" cy="128" r="104" fill="url(#ringGrad)" stroke="url(#ringGrad)" stroke-width="1"/><circle cx="128" cy="128" r="104" fill="url(#ringGrad)" stroke="url(#ringGrad)" stroke-width="1"/><circle cx="128" cy="128" r="104" fill="url(#ringGrad)" stroke="url(#ringGrad)" stroke-width="1"/><circle cx="128" cy="128" r="104" fill="url(#ringGrad)" stroke="url(#ringGrad)" stroke-width="1"/><circle cx="128" cy="128" r="104" fill="url(#ringGrad)" stroke="url(#ringGrad)" stroke-width="1"/><circle cx="128" cy="128" r="104" fill="url(#ringGrad)" stroke="url(#ringGrad)" stroke-width="1"/><circle cx="128" cy="128" r="104" fill="url(#ringGrad)" stroke="url(#ringGrad)" stroke-width="1"/><circle cx="128" cy="128" r="104" fill="url(#ringGrad)" stroke="url(#ringGrad)" stroke-width="1"/><circle cx="128" cy="128" r="104" fill="url(#ringGrad)" stroke="url(#ringGrad)" stroke-width="1"/><circle cx="128" cy="128" r="104" fill="url(#ringGrad)" stroke="url(#ringGrad)" stroke-width="1"/><circle cx="128" cy="128" r="104" fill="url(#ringGrad)" stroke="url(#ringGrad)" stroke-width="1"/><circle cx="128" cy="128" r="104" fill="url(#ringGrad)" stroke="url(#ringGrad)" stroke-width="1"/><circle cx="128" cy="128" r="104" fill="url(#ringGrad)" stroke="url(#ringGrad)" stroke-width="1"/><circle cx="128" cy="128" r="104" fill="url(#ringGrad)" stroke="url(#ringGrad)" stroke-width="1"/><circle cx="128" cy="128" r="104" fill="url(#ringGrad)" stroke="url(#ringGrad)" stroke-width="1"/><circle cx="128" cy="128" r="104" fill="url(#ringGrad)" stroke="url(#ringGrad)" stroke-width="1"/></svg>