<svg xmlns="http://www.w3.org/2000/svg" viewBox="0 0 256 256"><defs><radialGradient id="navyGrad" cx="35%" cy="30%" r="75%"><stop offset="0%" stop-color="#1c2b4a"/><stop offset="70%" stop-color="#101b33"/><stop offset="100%" stop-color="#0a1224"/></radialGradient><filter id="soften" x="-20%" y="-20%" width="140%" height="140%"><feGaussianBlur stdDeviation="1.2"/></filter><linearGradient id="goldGrad" x1="0%" y1="0%" x2="100%" y2="100%"><stop offset="0%" stop-color="#f6d67a"/><stop offset="50%" stop-color="#d4a017"/><stop offset="100%" stop-color="#b8860b"/></linearGradient><linearGradient id="burgGrad" x1="0%" y1="0%" x2="100%" y2="100%"><stop offset="0%" stop-color="#8f2438"/><stop offset="100%" stop-color="#5e1424"/></linearGradient></defs><circle cx="128" cy="128" r="108" fill="url(#navyGrad)" filter="url(#soften)"/><circle cx="128" cy="128" r="94" fill="none" stroke="#f2e9d8" stroke-width="2" opacity="0.85"/><g stroke="#c9a227" stroke-width="1.4" opacity="0.75"><line x1="90" y1="212" x2="93" y2="205"/><line x1="100" y1="217" x2="103" y2="209"/><line x1="110" y1="221" x2="113" y2="213"/><line x1="121" y1="223" x2="123" y2="215"/><line x1="132" y1="223" x2="133" y2="215"/><line x1="143" y1="221" x2="144" y2="213"/><line x1="153" y1="217" x2="155" y2="209"/><line x1="163" y1="212" x2="165" y2="205"/></g><g transform="rotate(-18 128 150)"><path d="M95 175 L128 150 L112 172 Z" fill="url(#burgGrad)"/><path d="M161 175 L128 150 L144 172 Z" fill="url(#burgGrad)"/><path d="M128 150 L100 100" stroke="url(#burgGrad)" stroke-width="7" stroke-linecap="round"/><path d="M128 150 L156 100" stroke="url(#burgGrad)" stroke-width="7" stroke-linecap="round"/><circle cx="100" cy="100" r="3" fill="#3a0d16"/><circle cx="156" cy="100" r="3" fill="#3a0d16"/></g><path d="M96 178 C110 150 140 130 150 108 C154 100 152 92 146 90 C140 88 133 92 130 100 C118 128 100 148 78 168" fill="none" stroke="url(#goldGrad)" stroke-width="5" stroke-linecap="round"/><ellipse cx="139" cy="97" rx="5.5" ry="9" fill="none" stroke="#0a1224" stroke-width="3" transform="rotate(-30 139 97)"/><path d="M100 148 C88 158 88 178 100 188 C112 198 128 194 128 178 C128 162 112 158 100 168 C90 176 92 194 104 200" fill="none" stroke="url(#goldGrad)" stroke-width="3.5" stroke-linecap="round"/></svg>