<svg xmlns="http://www.w3.org/2000/svg" viewBox="0 0 256 256"><defs><radialGradient id="bg" cx="50%" cy="48%" r="55%"><stop offset="0%" stop-color="#FEFCF8"/><stop offset="100%" stop-color="#F5F1E9"/></radialGradient><linearGradient id="spineGrad" x1="0%" y1="0%" x2="0%" y2="100%"><stop offset="0%" stop-color="#0F5E66"/><stop offset="100%" stop-color="#0A4A52"/></linearGradient></defs><circle cx="128" cy="128" r="120" fill="url(#bg)"/><g stroke="#E8892E" stroke-width="5" stroke-linecap="round" fill="none"><path d="M108 52 Q100 40 92 34"/><path d="M128 46 Q128 32 128 22"/><path d="M148 52 Q156 40 164 34"/></g><g fill="url(#spineGrad)"><ellipse cx="128" cy="70" rx="15" ry="11"/><ellipse cx="122" cy="92" rx="16" ry="11"/><ellipse cx="131" cy="114" rx="17" ry="12"/><ellipse cx="124" cy="137" rx="18" ry="12"/><ellipse cx="133" cy="160" rx="18" ry="12"/><ellipse cx="126" cy="183" rx="17" ry="12"/><ellipse cx="131" cy="205" rx="15" ry="11"/></g><path d="M128 62 Q118 80 126 92 Q136 104 122 116 Q112 128 130 140 Q140 152 122 164 Q112 176 130 188 Q140 198 128 210" fill="none" stroke="#5FC7C2" stroke-width="4" stroke-linecap="round" opacity="0.85"/><path d="M76 150 C70 140 72 126 84 120 C80 132 84 140 92 146 C88 156 88 168 96 178 C88 182 82 178 78 172 C70 168 68 158 76 150 Z" fill="#E8892E"/><path d="M96 178 C104 190 116 198 130 202 C142 206 154 202 160 192 C150 196 138 194 130 188 C122 182 118 172 118 162 C112 168 106 172 100 172 C96 174 96 176 96 178 Z" fill="#E8892E"/><path d="M84 120 C90 108 100 100 112 98 C106 104 102 112 102 120 C96 122 90 122 84 120 Z" fill="#E8892E"/></svg>