<svg xmlns="http://www.w3.org/2000/svg" viewBox="0 0 256 256"><rect x="-9999" y="-9999" width="19998" height="19998" fill="#0a0e1a"/><defs><radialGradient id="glow" cx="50%" cy="50%" r="50%"><stop offset="0%" stop-color="#22e5ff" stop-opacity="0.55"/><stop offset="55%" stop-color="#22e5ff" stop-opacity="0.18"/><stop offset="100%" stop-color="#22e5ff" stop-opacity="0"/></radialGradient><linearGradient id="shieldGrad" x1="20%" y1="0%" x2="80%" y2="100%"><stop offset="0%" stop-color="#a239ff"/><stop offset="50%" stop-color="#7a4fff"/><stop offset="100%" stop-color="#22e5ff"/></linearGradient><radialGradient id="navyGrad" cx="40%" cy="35%" r="70%"><stop offset="0%" stop-color="#182449"/><stop offset="100%" stop-color="#0a1024"/></radialGradient></defs><circle cx="128" cy="128" r="112" fill="none" stroke="#22e5ff" stroke-width="2.5" opacity="0.85"/><circle cx="128" cy="128" r="104" fill="url(#navyGrad)"/><circle cx="128" cy="128" r="98" fill="url(#glow)"/><polygon points="128,34 175,52 198,98 198,158 175,204 128,222 81,204 58,158 58,98 81,52" fill="none" stroke="url(#shieldGrad)" stroke-width="9" stroke-linejoin="round"/><rect x="86" y="46" width="22" height="9" rx="3" fill="#22e5ff" transform="rotate(-18 97 50)"/><rect x="148" y="46" width="22" height="9" rx="3" fill="#22e5ff" transform="rotate(18 159 50)"/><polygon points="108,88 108,168 176,128" fill="#ffffff" transform="rotate(6 128 128)"/></svg>