<svg xmlns="http://www.w3.org/2000/svg" viewBox="0 0 256 256"><defs><linearGradient id="leafGrad" x1="0" y1="0" x2="0" y2="1"><stop offset="0" stop-color="#fdfc9a"/><stop offset="1" stop-color="#fdfc9a"/></linearGradient><linearGradient id="sunGrad" x1="0" y1="0" x2="0" y2="1"><stop offset="0" stop-color="#fdfc9a"/><stop offset="1" stop-color="#fdfc9a"/></linearGradient></defs><circle cx="128" cy="128" r="112" fill="none" stroke="url(#leafGrad)" stroke-width="3"/><circle cx="128" cy="128" r="104" fill="none" stroke="url(#leafGrad)" stroke-width="1.5"/><path d="M 128 60 C 128 60 128 108 128 150 C 128 170 128 196 128 216 C 128 196 170 170 150 170 C 170 170 128 170 108 170 Z" fill="url(#sunGrad)"/><path d="M 128 170 C 128 170 150 170 150 170 Z" fill="none" stroke="#1a1a1a" stroke-width="2.5" stroke-linecap="round"/><path d="M 128 170 C 128 170 150 170 150 170 Z" fill="none" stroke="#1a1a1a" stroke-width="2.5" stroke-linecap="round"/><path d="M 128 170 C 128 170 150 170 150 170 Z" fill="none" stroke="#1a1a1a" stroke-width="2.5" stroke-linecap="round"/><path d="M 128 170 C 128 170 150 170 150 170 Z" fill="none" stroke="#1a1a1a" stroke-width="2.5" stroke-linecap="round"/><path d="M 128 170 C 128 170 150 170 150 170 Z" fill="none" stroke="#1a1a1a" stroke-width="2.5" stroke-linecap="round"/><path d="M 128 170 C 128 170 150 170 150 170 Z" fill="none" stroke="#1a1a1a" stroke-width="2.5" stroke-linecap="round"/></svg>