<svg xmlns="http://www.w3.org/2000/svg" viewBox="0 0 256 256"><defs><linearGradient id="leafGrad" x1="0" y1="1" x2="0" y2="0"><stop offset="0" stop-color="#1b4d3e"/><stop offset="1" stop-color="#5fbf73"/></linearGradient></defs><circle cx="128" cy="128" r="104" fill="#cddfc4"/><g fill="#2f6b4f"><path d="M128 46 L138 68 L118 68 Z"/><path d="M90 54 L108 74 L90 80 L80 60 Z"/><path d="M166 54 L148 74 L166 80 L176 60 Z"/></g><circle cx="128" cy="128" r="96" fill="none" stroke="#2f6b4f" stroke-width="2"/><path d="M75 178 C70 150 90 128 110 122 C100 145 100 165 108 182 C95 186 82 186 75 178 Z" fill="#0f5c56"/><path d="M181 178 C186 150 166 128 146 122 C156 145 156 165 148 182 C161 186 174 186 181 178 Z" fill="#0f5c56"/><path d="M128 190 C110 160 106 120 128 78 C150 120 146 160 128 190 Z" fill="url(#leafGrad)"/><path d="M128 185 C122 155 122 120 128 90" stroke="#e9f5df" stroke-width="4" fill="none" stroke-linecap="round"/></svg>